{
	"asset":{
		"generator":"Khronos glTF Blender I/O v4.1.63",
		"version":"2.0"
	},
	"extensionsUsed":[
		"KHR_materials_specular"
	],
	"scene":0,
	"scenes":[
		{
			"name":"Scene",
			"nodes":[
				11
			]
		}
	],
	"nodes":[
		{
			"mesh":0,
			"name":"Body1",
			"scale":[
				10.000000953674316,
				10.000000953674316,
				10.000000953674316
			],
			"translation":[
				0,
				3.814697265625e-06,
				0
			]
		},
		{
			"mesh":1,
			"name":"Body11",
			"scale":[
				10.000000953674316,
				10.000000953674316,
				10.000000953674316
			],
			"translation":[
				0,
				3.814697265625e-06,
				0
			]
		},
		{
			"mesh":2,
			"name":"Body12",
			"scale":[
				10.000000953674316,
				10.000000953674316,
				10.000000953674316
			],
			"translation":[
				0,
				3.814697265625e-06,
				0
			]
		},
		{
			"mesh":3,
			"name":"Body15",
			"scale":[
				10.000000953674316,
				10.000000953674316,
				10.000000953674316
			],
			"translation":[
				0,
				3.814697265625e-06,
				0
			]
		},
		{
			"mesh":4,
			"name":"Body16",
			"scale":[
				10.000000953674316,
				10.000000953674316,
				10.000000953674316
			],
			"translation":[
				0,
				3.814697265625e-06,
				0
			]
		},
		{
			"mesh":5,
			"name":"Body2",
			"scale":[
				10.000000953674316,
				10.000000953674316,
				10.000000953674316
			],
			"translation":[
				0,
				3.814697265625e-06,
				0
			]
		},
		{
			"mesh":6,
			"name":"Body3",
			"scale":[
				10.000000953674316,
				10.000000953674316,
				10.000000953674316
			],
			"translation":[
				0,
				3.814697265625e-06,
				0
			]
		},
		{
			"mesh":7,
			"name":"Body4",
			"scale":[
				10.000000953674316,
				10.000000953674316,
				10.000000953674316
			],
			"translation":[
				0,
				3.814697265625e-06,
				0
			]
		},
		{
			"mesh":8,
			"name":"Body5",
			"scale":[
				10.000000953674316,
				10.000000953674316,
				10.000000953674316
			],
			"translation":[
				0,
				3.814697265625e-06,
				0
			]
		},
		{
			"mesh":9,
			"name":"Body6",
			"scale":[
				10.000000953674316,
				10.000000953674316,
				10.000000953674316
			],
			"translation":[
				0,
				3.814697265625e-06,
				0
			]
		},
		{
			"mesh":10,
			"name":"Body7",
			"scale":[
				10.000000953674316,
				10.000000953674316,
				10.000000953674316
			],
			"translation":[
				0,
				3.814697265625e-06,
				0
			]
		},
		{
			"children":[
				0,
				1,
				2,
				3,
				4,
				5,
				6,
				7,
				8,
				9,
				10
			],
			"name":"absatzzs\u00e4ge_vuforia v2",
			"rotation":[
				0.6699371337890625,
				0.2262391597032547,
				0.2262391746044159,
				0.6699371933937073
			],
			"scale":[
				0.0010000000474974513,
				0.0010000000474974513,
				0.0010000000474974513
			],
			"translation":[
				0,
				0,
				-0.06318250298500061
			]
		}
	],
	"materials":[
		{
			"doubleSided":true,
			"extensions":{
				"KHR_materials_specular":{
					"specularColorFactor":[
						2.0,
						2.0,
						2.0
					]
				}
			},
			"name":"Plastic - Glossy (Black)",
			"pbrMetallicRoughness":{
				"baseColorTexture":{
					"index":0
				},
				"roughnessFactor":0.5527864098548889
			}
		}
	],
	"meshes":[
		{
			"name":"Body1",
			"primitives":[
				{
					"attributes":{
						"POSITION":0,
						"NORMAL":1,
						"TEXCOORD_0":2
					},
					"indices":3,
					"material":0
				}
			]
		},
		{
			"name":"Body11",
			"primitives":[
				{
					"attributes":{
						"POSITION":4,
						"NORMAL":5,
						"TEXCOORD_0":6
					},
					"indices":7,
					"material":0
				}
			]
		},
		{
			"name":"Body12",
			"primitives":[
				{
					"attributes":{
						"POSITION":8,
						"NORMAL":9,
						"TEXCOORD_0":10
					},
					"indices":11,
					"material":0
				}
			]
		},
		{
			"name":"Body15",
			"primitives":[
				{
					"attributes":{
						"POSITION":12,
						"NORMAL":13,
						"TEXCOORD_0":14
					},
					"indices":15,
					"material":0
				}
			]
		},
		{
			"name":"Body16",
			"primitives":[
				{
					"attributes":{
						"POSITION":16,
						"NORMAL":17,
						"TEXCOORD_0":18
					},
					"indices":19,
					"material":0
				}
			]
		},
		{
			"name":"Body2",
			"primitives":[
				{
					"attributes":{
						"POSITION":20,
						"NORMAL":21,
						"TEXCOORD_0":22
					},
					"indices":23,
					"material":0
				}
			]
		},
		{
			"name":"Body3",
			"primitives":[
				{
					"attributes":{
						"POSITION":24,
						"NORMAL":25,
						"TEXCOORD_0":26
					},
					"indices":27,
					"material":0
				}
			]
		},
		{
			"name":"Body4",
			"primitives":[
				{
					"attributes":{
						"POSITION":28,
						"NORMAL":29,
						"TEXCOORD_0":30
					},
					"indices":31,
					"material":0
				}
			]
		},
		{
			"name":"Body5",
			"primitives":[
				{
					"attributes":{
						"POSITION":32,
						"NORMAL":33,
						"TEXCOORD_0":34
					},
					"indices":31,
					"material":0
				}
			]
		},
		{
			"name":"Body6",
			"primitives":[
				{
					"attributes":{
						"POSITION":35,
						"NORMAL":36,
						"TEXCOORD_0":37
					},
					"indices":38,
					"material":0
				}
			]
		},
		{
			"name":"Body7",
			"primitives":[
				{
					"attributes":{
						"POSITION":39,
						"NORMAL":40,
						"TEXCOORD_0":41
					},
					"indices":42,
					"material":0
				}
			]
		}
	],
	"textures":[
		{
			"sampler":0,
			"source":0
		}
	],
	"images":[
		{
			"mimeType":"image/jpeg",
			"name":"wood-1_mit metall",
			"uri":"wood-1_mit%20metall.jpg"
		}
	],
	"accessors":[
		{
			"bufferView":0,
			"componentType":5126,
			"count":298,
			"max":[
				-0.9083309769630432,
				10.06411361694336,
				-4.233503341674805
			],
			"min":[
				-4.891878128051758,
				3.9559104442596436,
				-9.24569034576416
			],
			"type":"VEC3"
		},
		{
			"bufferView":1,
			"componentType":5126,
			"count":298,
			"type":"VEC3"
		},
		{
			"bufferView":2,
			"componentType":5126,
			"count":298,
			"type":"VEC2"
		},
		{
			"bufferView":3,
			"componentType":5123,
			"count":1020,
			"type":"SCALAR"
		},
		{
			"bufferView":4,
			"componentType":5126,
			"count":185,
			"max":[
				9.866519927978516,
				9.349254608154297,
				0.03596566990017891
			],
			"min":[
				-1.9122467041015625,
				8.821478843688965,
				-8.788217544555664
			],
			"type":"VEC3"
		},
		{
			"bufferView":5,
			"componentType":5126,
			"count":185,
			"type":"VEC3"
		},
		{
			"bufferView":6,
			"componentType":5126,
			"count":185,
			"type":"VEC2"
		},
		{
			"bufferView":7,
			"componentType":5123,
			"count":564,
			"type":"SCALAR"
		},
		{
			"bufferView":8,
			"componentType":5126,
			"count":399,
			"max":[
				-1.7157081365585327,
				9.416668891906738,
				-8.523248672485352
			],
			"min":[
				-2.0151760578155518,
				9.019407272338867,
				-8.888358116149902
			],
			"type":"VEC3"
		},
		{
			"bufferView":9,
			"componentType":5126,
			"count":399,
			"type":"VEC3"
		},
		{
			"bufferView":10,
			"componentType":5126,
			"count":399,
			"type":"VEC2"
		},
		{
			"bufferView":11,
			"componentType":5123,
			"count":1044,
			"type":"SCALAR"
		},
		{
			"bufferView":12,
			"componentType":5126,
			"count":275,
			"max":[
				6.751123905181885,
				3.8234734535217285,
				4.291980743408203
			],
			"min":[
				-5.6002373695373535,
				3.2826948165893555,
				-4.956526756286621
			],
			"type":"VEC3"
		},
		{
			"bufferView":13,
			"componentType":5126,
			"count":275,
			"type":"VEC3"
		},
		{
			"bufferView":14,
			"componentType":5126,
			"count":275,
			"type":"VEC2"
		},
		{
			"bufferView":15,
			"componentType":5123,
			"count":720,
			"type":"SCALAR"
		},
		{
			"bufferView":16,
			"componentType":5126,
			"count":520,
			"max":[
				5.047995567321777,
				3.798280954360962,
				3.011630058288574
			],
			"min":[
				-4.031744956970215,
				2.925445795059204,
				-3.7608838081359863
			],
			"type":"VEC3"
		},
		{
			"bufferView":17,
			"componentType":5126,
			"count":520,
			"type":"VEC3"
		},
		{
			"bufferView":18,
			"componentType":5126,
			"count":520,
			"type":"VEC2"
		},
		{
			"bufferView":19,
			"componentType":5123,
			"count":1332,
			"type":"SCALAR"
		},
		{
			"bufferView":20,
			"componentType":5126,
			"count":1734,
			"max":[
				10.891847610473633,
				9.831138610839844,
				3.6243507862091064
			],
			"min":[
				5.711712837219238,
				3.7151272296905518,
				-1.2283755540847778
			],
			"type":"VEC3"
		},
		{
			"bufferView":21,
			"componentType":5126,
			"count":1734,
			"type":"VEC3"
		},
		{
			"bufferView":22,
			"componentType":5126,
			"count":1734,
			"type":"VEC2"
		},
		{
			"bufferView":23,
			"componentType":5123,
			"count":8064,
			"type":"SCALAR"
		},
		{
			"bufferView":24,
			"componentType":5126,
			"count":1617,
			"max":[
				9.15740966796875,
				7.870892524719238,
				2.0451533794403076
			],
			"min":[
				-3.9203031063079834,
				6.294808864593506,
				-8.051776885986328
			],
			"type":"VEC3"
		},
		{
			"bufferView":25,
			"componentType":5126,
			"count":1617,
			"type":"VEC3"
		},
		{
			"bufferView":26,
			"componentType":5126,
			"count":1617,
			"type":"VEC2"
		},
		{
			"bufferView":27,
			"componentType":5123,
			"count":5334,
			"type":"SCALAR"
		},
		{
			"bufferView":28,
			"componentType":5126,
			"count":182,
			"max":[
				-4.033369541168213,
				4.334460258483887,
				-3.7881104946136475
			],
			"min":[
				-5.2372050285339355,
				3.3605360984802246,
				-5.01609992980957
			],
			"type":"VEC3"
		},
		{
			"bufferView":29,
			"componentType":5126,
			"count":182,
			"type":"VEC3"
		},
		{
			"bufferView":30,
			"componentType":5126,
			"count":182,
			"type":"VEC2"
		},
		{
			"bufferView":31,
			"componentType":5123,
			"count":576,
			"type":"SCALAR"
		},
		{
			"bufferView":32,
			"componentType":5126,
			"count":182,
			"max":[
				6.570221900939941,
				4.093677043914795,
				4.069743633270264
			],
			"min":[
				5.366386413574219,
				3.119752883911133,
				2.841754198074341
			],
			"type":"VEC3"
		},
		{
			"bufferView":33,
			"componentType":5126,
			"count":182,
			"type":"VEC3"
		},
		{
			"bufferView":34,
			"componentType":5126,
			"count":182,
			"type":"VEC2"
		},
		{
			"bufferView":35,
			"componentType":5126,
			"count":1113,
			"max":[
				-4.901529312133789,
				3.9892160892486572,
				-4.288025856018066
			],
			"min":[
				-6.69440221786499,
				3.3704288005828857,
				-5.784274101257324
			],
			"type":"VEC3"
		},
		{
			"bufferView":36,
			"componentType":5126,
			"count":1113,
			"type":"VEC3"
		},
		{
			"bufferView":37,
			"componentType":5126,
			"count":1113,
			"type":"VEC2"
		},
		{
			"bufferView":38,
			"componentType":5123,
			"count":5472,
			"type":"SCALAR"
		},
		{
			"bufferView":39,
			"componentType":5126,
			"count":1113,
			"max":[
				7.820906639099121,
				3.7286925315856934,
				5.1088056564331055
			],
			"min":[
				6.027512073516846,
				3.1122567653656006,
				3.6125571727752686
			],
			"type":"VEC3"
		},
		{
			"bufferView":40,
			"componentType":5126,
			"count":1113,
			"type":"VEC3"
		},
		{
			"bufferView":41,
			"componentType":5126,
			"count":1113,
			"type":"VEC2"
		},
		{
			"bufferView":42,
			"componentType":5123,
			"count":5472,
			"type":"SCALAR"
		}
	],
	"bufferViews":[
		{
			"buffer":0,
			"byteLength":3576,
			"byteOffset":0,
			"target":34962
		},
		{
			"buffer":0,
			"byteLength":3576,
			"byteOffset":3576,
			"target":34962
		},
		{
			"buffer":0,
			"byteLength":2384,
			"byteOffset":7152,
			"target":34962
		},
		{
			"buffer":0,
			"byteLength":2040,
			"byteOffset":9536,
			"target":34963
		},
		{
			"buffer":0,
			"byteLength":2220,
			"byteOffset":11576,
			"target":34962
		},
		{
			"buffer":0,
			"byteLength":2220,
			"byteOffset":13796,
			"target":34962
		},
		{
			"buffer":0,
			"byteLength":1480,
			"byteOffset":16016,
			"target":34962
		},
		{
			"buffer":0,
			"byteLength":1128,
			"byteOffset":17496,
			"target":34963
		},
		{
			"buffer":0,
			"byteLength":4788,
			"byteOffset":18624,
			"target":34962
		},
		{
			"buffer":0,
			"byteLength":4788,
			"byteOffset":23412,
			"target":34962
		},
		{
			"buffer":0,
			"byteLength":3192,
			"byteOffset":28200,
			"target":34962
		},
		{
			"buffer":0,
			"byteLength":2088,
			"byteOffset":31392,
			"target":34963
		},
		{
			"buffer":0,
			"byteLength":3300,
			"byteOffset":33480,
			"target":34962
		},
		{
			"buffer":0,
			"byteLength":3300,
			"byteOffset":36780,
			"target":34962
		},
		{
			"buffer":0,
			"byteLength":2200,
			"byteOffset":40080,
			"target":34962
		},
		{
			"buffer":0,
			"byteLength":1440,
			"byteOffset":42280,
			"target":34963
		},
		{
			"buffer":0,
			"byteLength":6240,
			"byteOffset":43720,
			"target":34962
		},
		{
			"buffer":0,
			"byteLength":6240,
			"byteOffset":49960,
			"target":34962
		},
		{
			"buffer":0,
			"byteLength":4160,
			"byteOffset":56200,
			"target":34962
		},
		{
			"buffer":0,
			"byteLength":2664,
			"byteOffset":60360,
			"target":34963
		},
		{
			"buffer":0,
			"byteLength":20808,
			"byteOffset":63024,
			"target":34962
		},
		{
			"buffer":0,
			"byteLength":20808,
			"byteOffset":83832,
			"target":34962
		},
		{
			"buffer":0,
			"byteLength":13872,
			"byteOffset":104640,
			"target":34962
		},
		{
			"buffer":0,
			"byteLength":16128,
			"byteOffset":118512,
			"target":34963
		},
		{
			"buffer":0,
			"byteLength":19404,
			"byteOffset":134640,
			"target":34962
		},
		{
			"buffer":0,
			"byteLength":19404,
			"byteOffset":154044,
			"target":34962
		},
		{
			"buffer":0,
			"byteLength":12936,
			"byteOffset":173448,
			"target":34962
		},
		{
			"buffer":0,
			"byteLength":10668,
			"byteOffset":186384,
			"target":34963
		},
		{
			"buffer":0,
			"byteLength":2184,
			"byteOffset":197052,
			"target":34962
		},
		{
			"buffer":0,
			"byteLength":2184,
			"byteOffset":199236,
			"target":34962
		},
		{
			"buffer":0,
			"byteLength":1456,
			"byteOffset":201420,
			"target":34962
		},
		{
			"buffer":0,
			"byteLength":1152,
			"byteOffset":202876,
			"target":34963
		},
		{
			"buffer":0,
			"byteLength":2184,
			"byteOffset":204028,
			"target":34962
		},
		{
			"buffer":0,
			"byteLength":2184,
			"byteOffset":206212,
			"target":34962
		},
		{
			"buffer":0,
			"byteLength":1456,
			"byteOffset":208396,
			"target":34962
		},
		{
			"buffer":0,
			"byteLength":13356,
			"byteOffset":209852,
			"target":34962
		},
		{
			"buffer":0,
			"byteLength":13356,
			"byteOffset":223208,
			"target":34962
		},
		{
			"buffer":0,
			"byteLength":8904,
			"byteOffset":236564,
			"target":34962
		},
		{
			"buffer":0,
			"byteLength":10944,
			"byteOffset":245468,
			"target":34963
		},
		{
			"buffer":0,
			"byteLength":13356,
			"byteOffset":256412,
			"target":34962
		},
		{
			"buffer":0,
			"byteLength":13356,
			"byteOffset":269768,
			"target":34962
		},
		{
			"buffer":0,
			"byteLength":8904,
			"byteOffset":283124,
			"target":34962
		},
		{
			"buffer":0,
			"byteLength":10944,
			"byteOffset":292028,
			"target":34963
		}
	],
	"samplers":[
		{
			"magFilter":9729,
			"minFilter":9987
		}
	],
	"buffers":[
		{
			"byteLength":302972,
			"uri":"s%C3%A4ge.bin"
		}
	]
}
