{
	"asset":{
		"generator":"Khronos glTF Blender I/O v4.1.63",
		"version":"2.0"
	},
	"scene":0,
	"scenes":[
		{
			"name":"Scene",
			"nodes":[
				1
			]
		}
	],
	"nodes":[
		{
			"mesh":0,
			"name":"Node1"
		},
		{
			"children":[
				0
			],
			"name":"Node0",
			"scale":[
				1.6100001335144043,
				1,
				1
			],
			"translation":[
				0.00024084514006972313,
				0.0005715977167710662,
				0
			]
		}
	],
	"materials":[
		{
			"doubleSided":true,
			"name":"_texture.001",
			"pbrMetallicRoughness":{
				"baseColorTexture":{
					"index":0
				},
				"metallicFactor":0
			}
		}
	],
	"meshes":[
		{
			"name":"Mesh0",
			"primitives":[
				{
					"attributes":{
						"POSITION":0,
						"NORMAL":1,
						"TEXCOORD_0":2
					},
					"indices":3,
					"material":0
				}
			]
		}
	],
	"textures":[
		{
			"sampler":0,
			"source":0
		}
	],
	"images":[
		{
			"mimeType":"image/jpeg",
			"name":"Image_0",
			"uri":"Image_0.jpg"
		}
	],
	"accessors":[
		{
			"bufferView":0,
			"componentType":5126,
			"count":382107,
			"max":[
				57.45245361328125,
				60.566856384277344,
				53.922454833984375
			],
			"min":[
				-58.810028076171875,
				-60.683006286621094,
				-53.93865966796875
			],
			"type":"VEC3"
		},
		{
			"bufferView":1,
			"componentType":5126,
			"count":382107,
			"type":"VEC3"
		},
		{
			"bufferView":2,
			"componentType":5126,
			"count":382107,
			"type":"VEC2"
		},
		{
			"bufferView":3,
			"componentType":5125,
			"count":383022,
			"type":"SCALAR"
		}
	],
	"bufferViews":[
		{
			"buffer":0,
			"byteLength":4585284,
			"byteOffset":0,
			"target":34962
		},
		{
			"buffer":0,
			"byteLength":4585284,
			"byteOffset":4585284,
			"target":34962
		},
		{
			"buffer":0,
			"byteLength":3056856,
			"byteOffset":9170568,
			"target":34962
		},
		{
			"buffer":0,
			"byteLength":1532088,
			"byteOffset":12227424,
			"target":34963
		}
	],
	"samplers":[
		{
			"magFilter":9729,
			"minFilter":9987
		}
	],
	"buffers":[
		{
			"byteLength":13759512,
			"uri":"metallobjekt.bin"
		}
	]
}
