{
	"asset":{
		"generator":"Khronos glTF Blender I/O v4.1.63",
		"version":"2.0"
	},
	"scene":0,
	"scenes":[
		{
			"name":"Scene",
			"nodes":[
				0
			]
		}
	],
	"nodes":[
		{
			"mesh":0,
			"name":"modelNietplatte_eng.001",
			"rotation":[
				0.11702021956443787,
				0.481618732213974,
				0.5059435367584229,
				0.70595383644104
			]
		}
	],
	"materials":[
		{
			"doubleSided":true,
			"name":"vorneUNDhinten",
			"pbrMetallicRoughness":{
				"baseColorTexture":{
					"index":0
				},
				"metallicFactor":0,
				"roughnessFactor":0.5
			}
		}
	],
	"meshes":[
		{
			"name":"modelNietplatteGroup2.003",
			"primitives":[
				{
					"attributes":{
						"POSITION":0,
						"NORMAL":1,
						"TEXCOORD_0":2
					},
					"indices":3,
					"material":0
				}
			]
		}
	],
	"textures":[
		{
			"sampler":0,
			"source":0
		}
	],
	"images":[
		{
			"mimeType":"image/jpeg",
			"name":"Foto_nietplatte_vorneUNDhinten",
			"uri":"Foto_nietplatte_vorneUNDhinten.jpg"
		}
	],
	"accessors":[
		{
			"bufferView":0,
			"componentType":5126,
			"count":253011,
			"max":[
				6.593062877655029,
				9.7551908493042,
				12.173742294311523
			],
			"min":[
				-8.46908950805664,
				-12.084160804748535,
				-12.426474571228027
			],
			"type":"VEC3"
		},
		{
			"bufferView":1,
			"componentType":5126,
			"count":253011,
			"type":"VEC3"
		},
		{
			"bufferView":2,
			"componentType":5126,
			"count":253011,
			"type":"VEC2"
		},
		{
			"bufferView":3,
			"componentType":5125,
			"count":286164,
			"type":"SCALAR"
		}
	],
	"bufferViews":[
		{
			"buffer":0,
			"byteLength":3036132,
			"byteOffset":0,
			"target":34962
		},
		{
			"buffer":0,
			"byteLength":3036132,
			"byteOffset":3036132,
			"target":34962
		},
		{
			"buffer":0,
			"byteLength":2024088,
			"byteOffset":6072264,
			"target":34962
		},
		{
			"buffer":0,
			"byteLength":1144656,
			"byteOffset":8096352,
			"target":34963
		}
	],
	"samplers":[
		{
			"magFilter":9729,
			"minFilter":9987
		}
	],
	"buffers":[
		{
			"byteLength":9241008,
			"uri":"nietplatte_bearbeitet0.1.bin"
		}
	]
}
