{
	"asset":{
		"generator":"Khronos glTF Blender I/O v4.1.63",
		"version":"2.0"
	},
	"extensionsUsed":[
		"KHR_materials_specular",
		"KHR_materials_ior"
	],
	"scene":0,
	"scenes":[
		{
			"name":"Scene",
			"nodes":[
				0
			]
		}
	],
	"nodes":[
		{
			"mesh":0,
			"name":"schiffsniet",
			"rotation":[
				0.7071068286895752,
				0,
				0,
				0.7071068286895752
			]
		}
	],
	"materials":[
		{
			"doubleSided":true,
			"extensions":{
				"KHR_materials_specular":{
					"specularFactor":0
				},
				"KHR_materials_ior":{
					"ior":1
				}
			},
			"name":"_texture",
			"pbrMetallicRoughness":{
				"baseColorTexture":{
					"index":0
				},
				"metallicFactor":0
			}
		}
	],
	"meshes":[
		{
			"name":"schiffsniet",
			"primitives":[
				{
					"attributes":{
						"POSITION":0,
						"NORMAL":1,
						"TEXCOORD_0":2
					},
					"indices":3,
					"material":0
				}
			]
		}
	],
	"textures":[
		{
			"sampler":0,
			"source":0
		}
	],
	"images":[
		{
			"mimeType":"image/png",
			"name":"metallTextur",
			"uri":"metallTextur.png"
		}
	],
	"accessors":[
		{
			"bufferView":0,
			"componentType":5126,
			"count":658399,
			"max":[
				13.761133193969727,
				23.493896484375,
				19.91621971130371
			],
			"min":[
				-12.591684341430664,
				-20.03240966796875,
				-16.281864166259766
			],
			"type":"VEC3"
		},
		{
			"bufferView":1,
			"componentType":5126,
			"count":658399,
			"type":"VEC3"
		},
		{
			"bufferView":2,
			"componentType":5126,
			"count":658399,
			"type":"VEC2"
		},
		{
			"bufferView":3,
			"componentType":5125,
			"count":659166,
			"type":"SCALAR"
		}
	],
	"bufferViews":[
		{
			"buffer":0,
			"byteLength":7900788,
			"byteOffset":0,
			"target":34962
		},
		{
			"buffer":0,
			"byteLength":7900788,
			"byteOffset":7900788,
			"target":34962
		},
		{
			"buffer":0,
			"byteLength":5267192,
			"byteOffset":15801576,
			"target":34962
		},
		{
			"buffer":0,
			"byteLength":2636664,
			"byteOffset":21068768,
			"target":34963
		}
	],
	"samplers":[
		{
			"magFilter":9729,
			"minFilter":9987
		}
	],
	"buffers":[
		{
			"byteLength":23705432,
			"uri":"schiffsniet.bin"
		}
	]
}
