{
	"asset":{
		"generator":"Khronos glTF Blender I/O v4.1.63",
		"version":"2.0"
	},
	"extensionsUsed":[
		"KHR_materials_specular"
	],
	"scene":0,
	"scenes":[
		{
			"name":"Scene",
			"nodes":[
				0
			]
		}
	],
	"nodes":[
		{
			"mesh":0,
			"name":"Subdivision_Surface.2",
			"rotation":[
				0.7071068286895752,
				0,
				0,
				0.7071068286895752
			]
		}
	],
	"materials":[
		{
			"doubleSided":true,
			"extensions":{
				"KHR_materials_specular":{
					"specularFactor":0
				}
			},
			"name":"default",
			"normalTexture":{
				"index":0
			},
			"pbrMetallicRoughness":{
				"baseColorTexture":{
					"index":1
				},
				"metallicFactor":0,
				"metallicRoughnessTexture":{
					"index":2
				}
			}
		}
	],
	"meshes":[
		{
			"name":"Subdivision_Surface.2",
			"primitives":[
				{
					"attributes":{
						"POSITION":0,
						"NORMAL":1,
						"TEXCOORD_0":2
					},
					"indices":3,
					"material":0
				}
			]
		}
	],
	"textures":[
		{
			"sampler":0,
			"source":0
		},
		{
			"sampler":0,
			"source":1
		},
		{
			"sampler":0,
			"source":2
		}
	],
	"images":[
		{
			"mimeType":"image/jpeg",
			"name":"Normal.jpg",
			"uri":"../../../Mein%20Studium/BA/3d_models/chisel/textures/Normal.jpg"
		},
		{
			"mimeType":"image/jpeg",
			"name":"Albedo.jpg",
			"uri":"../../../Mein%20Studium/BA/3d_models/chisel/textures/Albedo.jpg"
		},
		{
			"mimeType":"image/jpeg",
			"name":"Gloss.jpg",
			"uri":"../../../Mein%20Studium/BA/3d_models/chisel/textures/Gloss.jpg"
		}
	],
	"accessors":[
		{
			"bufferView":0,
			"componentType":5126,
			"count":27859,
			"max":[
				1.8899664878845215,
				25.393917083740234,
				1.7420786619186401
			],
			"min":[
				-1.8899705410003662,
				-6.926892280578613,
				-2.0414326190948486
			],
			"type":"VEC3"
		},
		{
			"bufferView":1,
			"componentType":5126,
			"count":27859,
			"type":"VEC3"
		},
		{
			"bufferView":2,
			"componentType":5126,
			"count":27859,
			"type":"VEC2"
		},
		{
			"bufferView":3,
			"componentType":5123,
			"count":88800,
			"type":"SCALAR"
		}
	],
	"bufferViews":[
		{
			"buffer":0,
			"byteLength":334308,
			"byteOffset":0,
			"target":34962
		},
		{
			"buffer":0,
			"byteLength":334308,
			"byteOffset":334308,
			"target":34962
		},
		{
			"buffer":0,
			"byteLength":222872,
			"byteOffset":668616,
			"target":34962
		},
		{
			"buffer":0,
			"byteLength":177600,
			"byteOffset":891488,
			"target":34963
		}
	],
	"samplers":[
		{
			"magFilter":9729,
			"minFilter":9987
		}
	],
	"buffers":[
		{
			"byteLength":1069088,
			"uri":"Werkzeug_arch%C3%A4ologe.bin"
		}
	]
}
