{
	"asset":{
		"generator":"Khronos glTF Blender I/O v4.1.63",
		"version":"2.0"
	},
	"scene":0,
	"scenes":[
		{
			"name":"Scene",
			"nodes":[
				0,
				4
			]
		}
	],
	"nodes":[
		{
			"mesh":0,
			"name":"modelNietplatte_eng.001",
			"rotation":[
				0.11702021956443787,
				0.481618732213974,
				0.5059435367584229,
				0.70595383644104
			]
		},
		{
			"mesh":1,
			"name":"rost1",
			"scale":[
				8.638449668884277,
				8.638449668884277,
				3.4216458797454834
			],
			"translation":[
				-2.5124471187591553,
				3.111957311630249,
				-8.896833419799805
			]
		},
		{
			"mesh":2,
			"name":"rost2",
			"scale":[
				3.0926554203033447,
				7.093469142913818,
				7.093469142913818
			],
			"translation":[
				7.973113059997559,
				2.2561445236206055,
				-2.6591291427612305
			]
		},
		{
			"mesh":3,
			"name":"rost3",
			"rotation":[
				0.3602387607097626,
				-0.6920536160469055,
				0.10628998279571533,
				0.616435170173645
			],
			"scale":[
				9.720794677734375,
				3.252744436264038,
				9.720795631408691
			],
			"translation":[
				-5.390193462371826,
				-1.1150530576705933,
				6.606417655944824
			]
		},
		{
			"children":[
				1,
				2,
				3
			],
			"name":"rostpartikel"
		}
	],
	"materials":[
		{
			"doubleSided":true,
			"name":"vorneUNDhinten",
			"pbrMetallicRoughness":{
				"baseColorTexture":{
					"index":0
				},
				"metallicFactor":0,
				"roughnessFactor":0.5
			}
		}
	],
	"meshes":[
		{
			"name":"modelNietplatteGroup2.003",
			"primitives":[
				{
					"attributes":{
						"POSITION":0,
						"NORMAL":1,
						"TEXCOORD_0":2
					},
					"indices":3,
					"material":0
				}
			]
		},
		{
			"name":"Sphere",
			"primitives":[
				{
					"attributes":{
						"POSITION":4,
						"NORMAL":5,
						"TEXCOORD_0":6
					},
					"indices":7,
					"material":0
				}
			]
		},
		{
			"name":"Sphere.001",
			"primitives":[
				{
					"attributes":{
						"POSITION":8,
						"NORMAL":9,
						"TEXCOORD_0":10
					},
					"indices":7,
					"material":0
				}
			]
		},
		{
			"name":"Sphere.002",
			"primitives":[
				{
					"attributes":{
						"POSITION":11,
						"NORMAL":12,
						"TEXCOORD_0":13
					},
					"indices":7,
					"material":0
				}
			]
		}
	],
	"textures":[
		{
			"sampler":0,
			"source":0
		}
	],
	"images":[
		{
			"mimeType":"image/jpeg",
			"name":"Foto_nietplatte_vorneUNDhinten",
			"uri":"Foto_nietplatte_vorneUNDhinten.jpg"
		}
	],
	"accessors":[
		{
			"bufferView":0,
			"componentType":5126,
			"count":253011,
			"max":[
				6.593062877655029,
				9.7551908493042,
				12.173742294311523
			],
			"min":[
				-8.46908950805664,
				-12.084160804748535,
				-12.426474571228027
			],
			"type":"VEC3"
		},
		{
			"bufferView":1,
			"componentType":5126,
			"count":253011,
			"type":"VEC3"
		},
		{
			"bufferView":2,
			"componentType":5126,
			"count":253011,
			"type":"VEC2"
		},
		{
			"bufferView":3,
			"componentType":5125,
			"count":286164,
			"type":"SCALAR"
		},
		{
			"bufferView":4,
			"componentType":5126,
			"count":1984,
			"max":[
				0.9999997019767761,
				1,
				0.9999993443489075
			],
			"min":[
				-0.9999990463256836,
				-1,
				-1
			],
			"type":"VEC3"
		},
		{
			"bufferView":5,
			"componentType":5126,
			"count":1984,
			"type":"VEC3"
		},
		{
			"bufferView":6,
			"componentType":5126,
			"count":1984,
			"type":"VEC2"
		},
		{
			"bufferView":7,
			"componentType":5123,
			"count":2880,
			"type":"SCALAR"
		},
		{
			"bufferView":8,
			"componentType":5126,
			"count":1984,
			"max":[
				0.9999997019767761,
				1,
				0.9999993443489075
			],
			"min":[
				-0.9999990463256836,
				-1,
				-1
			],
			"type":"VEC3"
		},
		{
			"bufferView":9,
			"componentType":5126,
			"count":1984,
			"type":"VEC3"
		},
		{
			"bufferView":10,
			"componentType":5126,
			"count":1984,
			"type":"VEC2"
		},
		{
			"bufferView":11,
			"componentType":5126,
			"count":1984,
			"max":[
				0.9999997019767761,
				1,
				0.9999993443489075
			],
			"min":[
				-0.9999990463256836,
				-1,
				-1
			],
			"type":"VEC3"
		},
		{
			"bufferView":12,
			"componentType":5126,
			"count":1984,
			"type":"VEC3"
		},
		{
			"bufferView":13,
			"componentType":5126,
			"count":1984,
			"type":"VEC2"
		}
	],
	"bufferViews":[
		{
			"buffer":0,
			"byteLength":3036132,
			"byteOffset":0,
			"target":34962
		},
		{
			"buffer":0,
			"byteLength":3036132,
			"byteOffset":3036132,
			"target":34962
		},
		{
			"buffer":0,
			"byteLength":2024088,
			"byteOffset":6072264,
			"target":34962
		},
		{
			"buffer":0,
			"byteLength":1144656,
			"byteOffset":8096352,
			"target":34963
		},
		{
			"buffer":0,
			"byteLength":23808,
			"byteOffset":9241008,
			"target":34962
		},
		{
			"buffer":0,
			"byteLength":23808,
			"byteOffset":9264816,
			"target":34962
		},
		{
			"buffer":0,
			"byteLength":15872,
			"byteOffset":9288624,
			"target":34962
		},
		{
			"buffer":0,
			"byteLength":5760,
			"byteOffset":9304496,
			"target":34963
		},
		{
			"buffer":0,
			"byteLength":23808,
			"byteOffset":9310256,
			"target":34962
		},
		{
			"buffer":0,
			"byteLength":23808,
			"byteOffset":9334064,
			"target":34962
		},
		{
			"buffer":0,
			"byteLength":15872,
			"byteOffset":9357872,
			"target":34962
		},
		{
			"buffer":0,
			"byteLength":23808,
			"byteOffset":9373744,
			"target":34962
		},
		{
			"buffer":0,
			"byteLength":23808,
			"byteOffset":9397552,
			"target":34962
		},
		{
			"buffer":0,
			"byteLength":15872,
			"byteOffset":9421360,
			"target":34962
		}
	],
	"samplers":[
		{
			"magFilter":9729,
			"minFilter":9987
		}
	],
	"buffers":[
		{
			"byteLength":9437232,
			"uri":"nietplatte_mit_Rost.bin"
		}
	]
}
