{
	"asset":{
		"generator":"Khronos glTF Blender I/O v4.1.63",
		"version":"2.0"
	},
	"extensionsUsed":[
		"KHR_materials_transmission",
		"KHR_materials_specular",
		"KHR_materials_ior"
	],
	"scene":0,
	"scenes":[
		{
			"name":"Scene",
			"nodes":[
				0,
				1,
				2,
				3,
				4
			]
		}
	],
	"nodes":[
		{
			"mesh":0,
			"name":"modelNietplatteGroup2",
			"rotation":[
				0.7071068286895752,
				0,
				0,
				0.7071068286895752
			],
			"translation":[
				-107.65228271484375,
				0,
				0
			]
		},
		{
			"mesh":1,
			"name":"modelNietplatteGroup2.001",
			"rotation":[
				0.7071068286895752,
				0,
				0,
				0.7071068286895752
			]
		},
		{
			"mesh":2,
			"name":"modelNietplatteGroup1.001",
			"rotation":[
				0.7071068286895752,
				0,
				0,
				0.7071068286895752
			]
		},
		{
			"mesh":3,
			"name":"modelNietplatte_eng",
			"rotation":[
				0.7071068286895752,
				0,
				0,
				0.7071068286895752
			],
			"translation":[
				35.048274993896484,
				13.081992149353027,
				428.5948791503906
			]
		},
		{
			"mesh":4,
			"name":"modelNietplatte_eng.001",
			"rotation":[
				0.11702021956443787,
				0.481618732213974,
				0.5059435367584229,
				0.70595383644104
			]
		}
	],
	"animations":[
		{
			"channels":[
				{
					"sampler":0,
					"target":{
						"node":4,
						"path":"translation"
					}
				},
				{
					"sampler":1,
					"target":{
						"node":4,
						"path":"rotation"
					}
				},
				{
					"sampler":2,
					"target":{
						"node":4,
						"path":"scale"
					}
				}
			],
			"name":"modelNietplatte_eng.001Action",
			"samplers":[
				{
					"input":28,
					"interpolation":"STEP",
					"output":29
				},
				{
					"input":30,
					"interpolation":"LINEAR",
					"output":31
				},
				{
					"input":30,
					"interpolation":"LINEAR",
					"output":32
				}
			]
		}
	],
	"materials":[
		{
			"doubleSided":true,
			"extensions":{
				"KHR_materials_transmission":{
					"transmissionFactor":1
				},
				"KHR_materials_specular":{
					"specularFactor":0
				},
				"KHR_materials_ior":{
					"ior":1
				}
			},
			"name":"_texture.001",
			"pbrMetallicRoughness":{
				"baseColorTexture":{
					"index":0
				},
				"metallicFactor":0
			}
		},
		{
			"doubleSided":true,
			"extensions":{
				"KHR_materials_transmission":{
					"transmissionFactor":1
				},
				"KHR_materials_specular":{
					"specularFactor":0
				},
				"KHR_materials_ior":{
					"ior":1
				}
			},
			"name":"_texture",
			"pbrMetallicRoughness":{
				"baseColorTexture":{
					"index":1
				},
				"metallicFactor":0
			}
		},
		{
			"doubleSided":true,
			"extensions":{
				"KHR_materials_transmission":{
					"transmissionFactor":1
				},
				"KHR_materials_specular":{
					"specularFactor":0
				},
				"KHR_materials_ior":{
					"ior":1
				}
			},
			"name":"_texture.002",
			"pbrMetallicRoughness":{
				"baseColorTexture":{
					"index":2
				},
				"metallicFactor":0
			}
		},
		{
			"doubleSided":true,
			"extensions":{
				"KHR_materials_transmission":{
					"transmissionFactor":1
				},
				"KHR_materials_specular":{
					"specularFactor":0
				},
				"KHR_materials_ior":{
					"ior":1
				}
			},
			"name":"_texture.003",
			"pbrMetallicRoughness":{
				"baseColorTexture":{
					"index":3
				},
				"metallicFactor":0
			}
		},
		{
			"doubleSided":true,
			"extensions":{
				"KHR_materials_transmission":{
					"transmissionFactor":1
				},
				"KHR_materials_specular":{
					"specularFactor":0
				},
				"KHR_materials_ior":{
					"ior":1
				}
			},
			"name":"_texture.005",
			"pbrMetallicRoughness":{
				"baseColorTexture":{
					"index":4
				},
				"metallicFactor":0
			}
		},
		{
			"doubleSided":true,
			"extensions":{
				"KHR_materials_transmission":{
					"transmissionFactor":1
				},
				"KHR_materials_specular":{
					"specularFactor":0
				},
				"KHR_materials_ior":{
					"ior":1
				}
			},
			"name":"_texture.004",
			"pbrMetallicRoughness":{
				"baseColorTexture":{
					"index":5
				},
				"metallicFactor":0
			}
		},
		{
			"doubleSided":true,
			"name":"vorneUNDhinten",
			"pbrMetallicRoughness":{
				"baseColorTexture":{
					"index":6
				},
				"metallicFactor":0,
				"roughnessFactor":0.5
			}
		}
	],
	"meshes":[
		{
			"name":"modelNietplatteGroup2",
			"primitives":[
				{
					"attributes":{
						"POSITION":0,
						"NORMAL":1,
						"TEXCOORD_0":2
					},
					"indices":3,
					"material":0
				},
				{
					"attributes":{
						"POSITION":4,
						"NORMAL":5,
						"TEXCOORD_0":6
					},
					"indices":7,
					"material":1
				}
			]
		},
		{
			"name":"modelNietplatteGroup2.001",
			"primitives":[
				{
					"attributes":{
						"POSITION":8,
						"NORMAL":9,
						"TEXCOORD_0":10
					},
					"indices":11,
					"material":2
				}
			]
		},
		{
			"name":"modelNietplatteGroup1.001",
			"primitives":[
				{
					"attributes":{
						"POSITION":12,
						"NORMAL":13,
						"TEXCOORD_0":14
					},
					"indices":15,
					"material":3
				}
			]
		},
		{
			"name":"modelNietplatteGroup2.002",
			"primitives":[
				{
					"attributes":{
						"POSITION":16,
						"NORMAL":17,
						"TEXCOORD_0":18
					},
					"indices":19,
					"material":4
				},
				{
					"attributes":{
						"POSITION":20,
						"NORMAL":21,
						"TEXCOORD_0":22
					},
					"indices":23,
					"material":5
				}
			]
		},
		{
			"name":"modelNietplatteGroup2.003",
			"primitives":[
				{
					"attributes":{
						"POSITION":24,
						"NORMAL":25,
						"TEXCOORD_0":26
					},
					"indices":27,
					"material":6
				}
			]
		}
	],
	"textures":[
		{
			"sampler":0,
			"source":0
		},
		{
			"sampler":0,
			"source":1
		},
		{
			"sampler":0,
			"source":2
		},
		{
			"sampler":0,
			"source":3
		},
		{
			"sampler":0,
			"source":2
		},
		{
			"sampler":0,
			"source":3
		},
		{
			"sampler":0,
			"source":4
		}
	],
	"images":[
		{
			"mimeType":"image/jpeg",
			"name":"modelNietplatteGroup2",
			"uri":"modelNietplatteGroup2.jpg"
		},
		{
			"mimeType":"image/jpeg",
			"name":"modelNietplatteGroup1",
			"uri":"modelNietplatteGroup1.jpg"
		},
		{
			"mimeType":"image/jpeg",
			"name":"modelNietplatteGroup2.jpg",
			"uri":"modelNietplatteGroup2_jpg.jpg"
		},
		{
			"mimeType":"image/jpeg",
			"name":"modelNietplatteGroup1.jpg",
			"uri":"modelNietplatteGroup1_jpg.jpg"
		},
		{
			"mimeType":"image/jpeg",
			"name":"Foto_nietplatte_vorneUNDhinten",
			"uri":"Foto_nietplatte_vorneUNDhinten.jpg"
		}
	],
	"accessors":[
		{
			"bufferView":0,
			"componentType":5126,
			"count":138369,
			"max":[
				6.094261646270752,
				10.063812255859375,
				12.162140846252441
			],
			"min":[
				-9.035405158996582,
				-11.718353271484375,
				-12.432358741760254
			],
			"type":"VEC3"
		},
		{
			"bufferView":1,
			"componentType":5126,
			"count":138369,
			"type":"VEC3"
		},
		{
			"bufferView":2,
			"componentType":5126,
			"count":138369,
			"type":"VEC2"
		},
		{
			"bufferView":3,
			"componentType":5125,
			"count":138732,
			"type":"SCALAR"
		},
		{
			"bufferView":4,
			"componentType":5126,
			"count":100493,
			"max":[
				6.265699863433838,
				10.12017822265625,
				11.606152534484863
			],
			"min":[
				-7.7666544914245605,
				-9.853271484375,
				-11.04039478302002
			],
			"type":"VEC3"
		},
		{
			"bufferView":5,
			"componentType":5126,
			"count":100493,
			"type":"VEC3"
		},
		{
			"bufferView":6,
			"componentType":5126,
			"count":100493,
			"type":"VEC2"
		},
		{
			"bufferView":7,
			"componentType":5125,
			"count":100713,
			"type":"SCALAR"
		},
		{
			"bufferView":8,
			"componentType":5126,
			"count":138467,
			"max":[
				7.415596008300781,
				438.65869140625,
				1.290073037147522
			],
			"min":[
				-7.714070796966553,
				416.87652587890625,
				-23.304426193237305
			],
			"type":"VEC3"
		},
		{
			"bufferView":9,
			"componentType":5126,
			"count":138467,
			"type":"VEC3"
		},
		{
			"bufferView":10,
			"componentType":5126,
			"count":138467,
			"type":"VEC2"
		},
		{
			"bufferView":11,
			"componentType":5125,
			"count":138546,
			"type":"SCALAR"
		},
		{
			"bufferView":12,
			"componentType":5126,
			"count":100578,
			"max":[
				7.587034225463867,
				438.7150573730469,
				0.7340850234031677
			],
			"min":[
				-6.445320129394531,
				418.7416076660156,
				-21.91246223449707
			],
			"type":"VEC3"
		},
		{
			"bufferView":13,
			"componentType":5126,
			"count":100578,
			"type":"VEC3"
		},
		{
			"bufferView":14,
			"componentType":5126,
			"count":100578,
			"type":"VEC2"
		},
		{
			"bufferView":15,
			"componentType":5125,
			"count":100647,
			"type":"SCALAR"
		},
		{
			"bufferView":16,
			"componentType":5126,
			"count":138272,
			"max":[
				6.206756114959717,
				10.063812255859375,
				12.162140846252441
			],
			"min":[
				-8.922910690307617,
				-11.718353271484375,
				-12.432358741760254
			],
			"type":"VEC3"
		},
		{
			"bufferView":17,
			"componentType":5126,
			"count":138272,
			"type":"VEC3"
		},
		{
			"bufferView":18,
			"componentType":5126,
			"count":138272,
			"type":"VEC2"
		},
		{
			"bufferView":19,
			"componentType":5125,
			"count":138546,
			"type":"SCALAR"
		},
		{
			"bufferView":20,
			"componentType":5126,
			"count":100453,
			"max":[
				6.110314846038818,
				10.12017822265625,
				11.606152534484863
			],
			"min":[
				-7.92203950881958,
				-9.853271484375,
				-11.04039478302002
			],
			"type":"VEC3"
		},
		{
			"bufferView":21,
			"componentType":5126,
			"count":100453,
			"type":"VEC3"
		},
		{
			"bufferView":22,
			"componentType":5126,
			"count":100453,
			"type":"VEC2"
		},
		{
			"bufferView":23,
			"componentType":5125,
			"count":100647,
			"type":"SCALAR"
		},
		{
			"bufferView":24,
			"componentType":5126,
			"count":253011,
			"max":[
				6.593062877655029,
				9.7551908493042,
				12.173742294311523
			],
			"min":[
				-8.46908950805664,
				-12.084160804748535,
				-12.426474571228027
			],
			"type":"VEC3"
		},
		{
			"bufferView":25,
			"componentType":5126,
			"count":253011,
			"type":"VEC3"
		},
		{
			"bufferView":26,
			"componentType":5126,
			"count":253011,
			"type":"VEC2"
		},
		{
			"bufferView":27,
			"componentType":5125,
			"count":286164,
			"type":"SCALAR"
		},
		{
			"bufferView":28,
			"componentType":5126,
			"count":2,
			"max":[
				2.9166666666666665
			],
			"min":[
				0.041666666666666664
			],
			"type":"SCALAR"
		},
		{
			"bufferView":29,
			"componentType":5126,
			"count":2,
			"type":"VEC3"
		},
		{
			"bufferView":30,
			"componentType":5126,
			"count":70,
			"max":[
				2.9166666666666665
			],
			"min":[
				0.041666666666666664
			],
			"type":"SCALAR"
		},
		{
			"bufferView":31,
			"componentType":5126,
			"count":70,
			"type":"VEC4"
		},
		{
			"bufferView":32,
			"componentType":5126,
			"count":70,
			"type":"VEC3"
		}
	],
	"bufferViews":[
		{
			"buffer":0,
			"byteLength":1660428,
			"byteOffset":0,
			"target":34962
		},
		{
			"buffer":0,
			"byteLength":1660428,
			"byteOffset":1660428,
			"target":34962
		},
		{
			"buffer":0,
			"byteLength":1106952,
			"byteOffset":3320856,
			"target":34962
		},
		{
			"buffer":0,
			"byteLength":554928,
			"byteOffset":4427808,
			"target":34963
		},
		{
			"buffer":0,
			"byteLength":1205916,
			"byteOffset":4982736,
			"target":34962
		},
		{
			"buffer":0,
			"byteLength":1205916,
			"byteOffset":6188652,
			"target":34962
		},
		{
			"buffer":0,
			"byteLength":803944,
			"byteOffset":7394568,
			"target":34962
		},
		{
			"buffer":0,
			"byteLength":402852,
			"byteOffset":8198512,
			"target":34963
		},
		{
			"buffer":0,
			"byteLength":1661604,
			"byteOffset":8601364,
			"target":34962
		},
		{
			"buffer":0,
			"byteLength":1661604,
			"byteOffset":10262968,
			"target":34962
		},
		{
			"buffer":0,
			"byteLength":1107736,
			"byteOffset":11924572,
			"target":34962
		},
		{
			"buffer":0,
			"byteLength":554184,
			"byteOffset":13032308,
			"target":34963
		},
		{
			"buffer":0,
			"byteLength":1206936,
			"byteOffset":13586492,
			"target":34962
		},
		{
			"buffer":0,
			"byteLength":1206936,
			"byteOffset":14793428,
			"target":34962
		},
		{
			"buffer":0,
			"byteLength":804624,
			"byteOffset":16000364,
			"target":34962
		},
		{
			"buffer":0,
			"byteLength":402588,
			"byteOffset":16804988,
			"target":34963
		},
		{
			"buffer":0,
			"byteLength":1659264,
			"byteOffset":17207576,
			"target":34962
		},
		{
			"buffer":0,
			"byteLength":1659264,
			"byteOffset":18866840,
			"target":34962
		},
		{
			"buffer":0,
			"byteLength":1106176,
			"byteOffset":20526104,
			"target":34962
		},
		{
			"buffer":0,
			"byteLength":554184,
			"byteOffset":21632280,
			"target":34963
		},
		{
			"buffer":0,
			"byteLength":1205436,
			"byteOffset":22186464,
			"target":34962
		},
		{
			"buffer":0,
			"byteLength":1205436,
			"byteOffset":23391900,
			"target":34962
		},
		{
			"buffer":0,
			"byteLength":803624,
			"byteOffset":24597336,
			"target":34962
		},
		{
			"buffer":0,
			"byteLength":402588,
			"byteOffset":25400960,
			"target":34963
		},
		{
			"buffer":0,
			"byteLength":3036132,
			"byteOffset":25803548,
			"target":34962
		},
		{
			"buffer":0,
			"byteLength":3036132,
			"byteOffset":28839680,
			"target":34962
		},
		{
			"buffer":0,
			"byteLength":2024088,
			"byteOffset":31875812,
			"target":34962
		},
		{
			"buffer":0,
			"byteLength":1144656,
			"byteOffset":33899900,
			"target":34963
		},
		{
			"buffer":0,
			"byteLength":8,
			"byteOffset":35044556
		},
		{
			"buffer":0,
			"byteLength":24,
			"byteOffset":35044564
		},
		{
			"buffer":0,
			"byteLength":280,
			"byteOffset":35044588
		},
		{
			"buffer":0,
			"byteLength":1120,
			"byteOffset":35044868
		},
		{
			"buffer":0,
			"byteLength":840,
			"byteOffset":35045988
		}
	],
	"samplers":[
		{
			"magFilter":9729,
			"minFilter":9987
		}
	],
	"buffers":[
		{
			"byteLength":35046828,
			"uri":"nietplatte_mit_animation.bin"
		}
	]
}
