{
	"asset":{
		"generator":"Khronos glTF Blender I/O v4.1.63",
		"version":"2.0"
	},
	"extensionsUsed":[
		"KHR_materials_specular",
		"KHR_materials_ior"
	],
	"scene":0,
	"scenes":[
		{
			"name":"Scene",
			"nodes":[
				0,
				1
			]
		}
	],
	"nodes":[
		{
			"mesh":0,
			"name":"schiffsniet",
			"rotation":[
				-0.3616458773612976,
				0.021457847207784653,
				-0.14255546033382416,
				0.9211024641990662
			]
		},
		{
			"name":"Empty",
			"rotation":[
				-1,
				0,
				0,
				3.169494888766167e-08
			],
			"scale":[
				31.546661376953125,
				31.546661376953125,
				31.546661376953125
			],
			"translation":[
				-53.5326042175293,
				30.69732093811035,
				-3.0863494873046875
			]
		}
	],
	"materials":[
		{
			"doubleSided":true,
			"extensions":{
				"KHR_materials_specular":{
					"specularFactor":0
				},
				"KHR_materials_ior":{
					"ior":1
				}
			},
			"name":"_texture",
			"pbrMetallicRoughness":{
				"baseColorTexture":{
					"index":0
				},
				"metallicFactor":0
			}
		}
	],
	"meshes":[
		{
			"name":"schiffsniet",
			"primitives":[
				{
					"attributes":{
						"POSITION":0,
						"NORMAL":1,
						"TEXCOORD_0":2
					},
					"indices":3,
					"material":0
				}
			]
		}
	],
	"textures":[
		{
			"sampler":0,
			"source":0
		}
	],
	"images":[
		{
			"mimeType":"image/png",
			"name":"Schiffsniet__materia_zusammengesetzt",
			"uri":"Schiffsniet__materia_zusammengesetzt.png"
		}
	],
	"accessors":[
		{
			"bufferView":0,
			"componentType":5126,
			"count":658490,
			"max":[
				13.761133193969727,
				11.434001922607422,
				20.40536117553711
			],
			"min":[
				-12.591684341430664,
				-10.668829917907715,
				-21.953699111938477
			],
			"type":"VEC3"
		},
		{
			"bufferView":1,
			"componentType":5126,
			"count":658490,
			"type":"VEC3"
		},
		{
			"bufferView":2,
			"componentType":5126,
			"count":658490,
			"type":"VEC2"
		},
		{
			"bufferView":3,
			"componentType":5125,
			"count":659166,
			"type":"SCALAR"
		}
	],
	"bufferViews":[
		{
			"buffer":0,
			"byteLength":7901880,
			"byteOffset":0,
			"target":34962
		},
		{
			"buffer":0,
			"byteLength":7901880,
			"byteOffset":7901880,
			"target":34962
		},
		{
			"buffer":0,
			"byteLength":5267920,
			"byteOffset":15803760,
			"target":34962
		},
		{
			"buffer":0,
			"byteLength":2636664,
			"byteOffset":21071680,
			"target":34963
		}
	],
	"samplers":[
		{
			"magFilter":9729,
			"minFilter":9987
		}
	],
	"buffers":[
		{
			"byteLength":23708344,
			"uri":"schiffsniet_originalTextur.bin"
		}
	]
}
