{
	"asset":{
		"generator":"Khronos glTF Blender I/O v4.1.63",
		"version":"2.0"
	},
	"extensionsUsed":[
		"KHR_materials_specular",
		"KHR_materials_ior"
	],
	"scene":0,
	"scenes":[
		{
			"name":"Scene",
			"nodes":[
				44,
				45,
				46
			]
		}
	],
	"nodes":[
		{
			"mesh":0,
			"name":"Frames_Ship Oak Aged_0"
		},
		{
			"children":[
				0
			],
			"name":"Frames"
		},
		{
			"mesh":1,
			"name":"Keel_Ship Oak Aged_0"
		},
		{
			"children":[
				2
			],
			"name":"Keel"
		},
		{
			"name":"Mast_Ship Oak Aged_0",
			"translation":[
				2.431014536341536e-06,
				0,
				0
			]
		},
		{
			"children":[
				4
			],
			"name":"Mast",
			"rotation":[
				0.47771450877189636,
				0.477714478969574,
				0.5213338136672974,
				0.5213338136672974
			],
			"translation":[
				0,
				18.506324768066406,
				6.355100154876709
			]
		},
		{
			"mesh":2,
			"name":"Planking_Ship Oak Aged_0"
		},
		{
			"children":[
				6
			],
			"name":"Planking"
		},
		{
			"name":"Rigging Pin_Ship Oak Aged_0",
			"translation":[
				-7.62939453125e-06,
				0,
				-7.62939453125e-06
			]
		},
		{
			"children":[
				8
			],
			"name":"Rigging Pin",
			"translation":[
				-73.64675903320312,
				62.37419128417969,
				83.81107330322266
			]
		},
		{
			"name":"Rigging Pin.001_Ship Oak Aged_0",
			"translation":[
				-7.568591172457673e-06,
				0,
				1.0936485523416195e-05
			]
		},
		{
			"children":[
				10
			],
			"name":"Rigging Pin.001",
			"rotation":[
				0,
				1,
				0,
				7.549790126404332e-08
			],
			"translation":[
				72.42906188964844,
				62.37419128417969,
				-151.98426818847656
			]
		},
		{
			"name":"Rigging Pin.002_Ship Oak Aged_0",
			"translation":[
				-7.751004886813462e-06,
				0,
				-8.574972525821067e-06
			]
		},
		{
			"children":[
				12
			],
			"name":"Rigging Pin.002",
			"translation":[
				-72.65965270996094,
				62.37419128417969,
				-151.9842987060547
			]
		},
		{
			"mesh":3,
			"name":"Rudder_Ship Oak Aged_0",
			"translation":[
				6.198883056640625e-06,
				-5.7220458984375e-06,
				-2.5510787963867188e-05
			]
		},
		{
			"children":[
				14
			],
			"name":"Rudder",
			"rotation":[
				0.18708008527755737,
				0.01497355755418539,
				0.13323014974594116,
				0.9731529355049133
			],
			"translation":[
				-30.27901268005371,
				68.36863708496094,
				-325.94573974609375
			]
		},
		{
			"mesh":4,
			"name":"Rudder Frame_Ship Oak Aged_0"
		},
		{
			"children":[
				16
			],
			"name":"Rudder Frame"
		},
		{
			"name":"Sail Full_Sail Full_0"
		},
		{
			"children":[
				18
			],
			"name":"Sail Full",
			"rotation":[
				0,
				0.2588191032409668,
				0,
				0.9659258127212524
			],
			"translation":[
				4.139705181121826,
				420.9235534667969,
				12.833086013793945
			]
		},
		{
			"name":"Sail Ropes_Ship Oak Aged_0"
		},
		{
			"children":[
				20
			],
			"name":"Sail Ropes",
			"rotation":[
				0,
				0.2588191032409668,
				0,
				0.9659258127212524
			],
			"translation":[
				4.139705181121826,
				420.9235534667969,
				12.833086013793945
			]
		},
		{
			"name":"Shrouds_Ship Oak Aged_0"
		},
		{
			"children":[
				22
			],
			"name":"Shrouds"
		},
		{
			"name":"Stanchions_Ship Oak Aged_0"
		},
		{
			"children":[
				24
			],
			"name":"Stanchions"
		},
		{
			"name":"Stay_Ship Oak Aged_0",
			"translation":[
				0,
				-2.288818359375e-05,
				3.814697265625e-06
			]
		},
		{
			"children":[
				26
			],
			"name":"Stay",
			"rotation":[
				-0.35628339648246765,
				0,
				0,
				0.9343779683113098
			],
			"translation":[
				0,
				92.01209259033203,
				334.6474609375
			]
		},
		{
			"mesh":5,
			"name":"Stems_Ship Oak Aged_0"
		},
		{
			"children":[
				28
			],
			"name":"Stems"
		},
		{
			"mesh":6,
			"name":"Stringer_Ship Oak Aged_0"
		},
		{
			"children":[
				30
			],
			"name":"Stringer"
		},
		{
			"name":"Thole Straps_Ship Oak Aged_0"
		},
		{
			"children":[
				32
			],
			"name":"Thole Straps"
		},
		{
			"mesh":7,
			"name":"Tiller_Ship Oak Aged_0",
			"translation":[
				0,
				0,
				-9.5367431640625e-06
			]
		},
		{
			"children":[
				34
			],
			"name":"Tiller",
			"rotation":[
				0.1397082507610321,
				0,
				0,
				0.990192711353302
			],
			"translation":[
				-2.4078071117401123,
				105.15486145019531,
				-311.12744140625
			]
		},
		{
			"name":"Yard_Ship Oak Aged_0",
			"translation":[
				0,
				6.103515625e-05,
				0
			]
		},
		{
			"children":[
				36
			],
			"name":"Yard",
			"rotation":[
				0,
				0.2588191032409668,
				0,
				0.9659258127212524
			],
			"translation":[
				0,
				425,
				6.355100154876709
			]
		},
		{
			"name":"Yard Rope_Ship Oak Aged_0",
			"translation":[
				0,
				3.814697265625e-06,
				-7.62939453125e-06
			]
		},
		{
			"children":[
				38
			],
			"name":"Yard Rope",
			"translation":[
				-6.632101535797119,
				38.041011810302734,
				-73.10437774658203
			]
		},
		{
			"name":"Yard Rope Raised_Ship Oak Aged_0"
		},
		{
			"children":[
				40
			],
			"name":"Yard Rope Raised",
			"translation":[
				6.189398288726807,
				95.83069610595703,
				6.087800025939941
			]
		},
		{
			"children":[
				1,
				3,
				5,
				7,
				9,
				11,
				13,
				15,
				17,
				19,
				21,
				23,
				25,
				27,
				29,
				31,
				33,
				35,
				37,
				39,
				41
			],
			"name":"RootNode"
		},
		{
			"children":[
				42
			],
			"name":"Gislinge_Boat.fbx",
			"rotation":[
				0.70710688829422,
				0,
				0,
				0.7071066498756409
			]
		},
		{
			"children":[
				43
			],
			"name":"Sketchfab_model",
			"rotation":[
				-0.70710688829422,
				0,
				0,
				0.7071066498756409
			]
		},
		{
			"mesh":8,
			"name":"schiffsniet",
			"rotation":[
				0.8218318819999695,
				-0.14508064091205597,
				0.5509459376335144,
				0.0016635558567941189
			],
			"scale":[
				0.30000004172325134,
				0.30000001192092896,
				0.30000001192092896
			],
			"translation":[
				45.68669509887695,
				70.24886322021484,
				-265.1079406738281
			]
		},
		{
			"mesh":9,
			"name":"nietplattenteil",
			"rotation":[
				-0.12354721873998642,
				0.4617788791656494,
				0.8339822888374329,
				0.27562642097473145
			],
			"scale":[
				0.3000001311302185,
				0.3000001013278961,
				0.30000004172325134
			],
			"translation":[
				52.55247116088867,
				59.564300537109375,
				-229.2863006591797
			]
		}
	],
	"materials":[
		{
			"doubleSided":true,
			"name":"Ship_Oak_Aged.003",
			"normalTexture":{
				"index":0
			},
			"occlusionTexture":{
				"index":1
			},
			"pbrMetallicRoughness":{
				"baseColorTexture":{
					"index":2
				},
				"metallicRoughnessTexture":{
					"index":1
				}
			}
		},
		{
			"doubleSided":true,
			"extensions":{
				"KHR_materials_specular":{
					"specularFactor":0
				},
				"KHR_materials_ior":{
					"ior":1
				}
			},
			"name":"_texture",
			"pbrMetallicRoughness":{
				"baseColorTexture":{
					"index":3
				},
				"metallicFactor":0
			}
		},
		{
			"doubleSided":true,
			"name":"vorneUNDhinten",
			"pbrMetallicRoughness":{
				"baseColorFactor":[
					0.05142667144536972,
					0.2927459478378296,
					0.49904030561447144,
					1
				],
				"metallicFactor":0.7244094610214233,
				"roughnessFactor":0.5
			}
		}
	],
	"meshes":[
		{
			"name":"Frames_Ship Oak Aged_0.003",
			"primitives":[
				{
					"attributes":{
						"POSITION":0,
						"NORMAL":1,
						"TEXCOORD_0":2
					},
					"indices":3,
					"material":0
				}
			]
		},
		{
			"name":"Keel_Ship Oak Aged_0.003",
			"primitives":[
				{
					"attributes":{
						"POSITION":4,
						"NORMAL":5,
						"TEXCOORD_0":6
					},
					"indices":7,
					"material":0
				}
			]
		},
		{
			"name":"Planking_Ship Oak Aged_0.003",
			"primitives":[
				{
					"attributes":{
						"POSITION":8,
						"NORMAL":9,
						"TEXCOORD_0":10
					},
					"indices":11,
					"material":0
				}
			]
		},
		{
			"name":"Rudder_Ship Oak Aged_0.003",
			"primitives":[
				{
					"attributes":{
						"POSITION":12,
						"NORMAL":13,
						"TEXCOORD_0":14
					},
					"indices":15,
					"material":0
				}
			]
		},
		{
			"name":"Rudder Frame_Ship Oak Aged_0.003",
			"primitives":[
				{
					"attributes":{
						"POSITION":16,
						"NORMAL":17,
						"TEXCOORD_0":18
					},
					"indices":19,
					"material":0
				}
			]
		},
		{
			"name":"Stems_Ship Oak Aged_0.003",
			"primitives":[
				{
					"attributes":{
						"POSITION":20,
						"NORMAL":21,
						"TEXCOORD_0":22
					},
					"indices":23,
					"material":0
				}
			]
		},
		{
			"name":"Stringer_Ship Oak Aged_0.003",
			"primitives":[
				{
					"attributes":{
						"POSITION":24,
						"NORMAL":25,
						"TEXCOORD_0":26
					},
					"indices":27,
					"material":0
				}
			]
		},
		{
			"name":"Tiller_Ship Oak Aged_0.003",
			"primitives":[
				{
					"attributes":{
						"POSITION":28,
						"NORMAL":29,
						"TEXCOORD_0":30
					},
					"indices":31,
					"material":0
				}
			]
		},
		{
			"name":"schiffsniet",
			"primitives":[
				{
					"attributes":{
						"POSITION":32,
						"NORMAL":33,
						"TEXCOORD_0":34
					},
					"indices":35,
					"material":1
				}
			]
		},
		{
			"name":"nietplattenteil",
			"primitives":[
				{
					"attributes":{
						"POSITION":36,
						"NORMAL":37,
						"TEXCOORD_0":38
					},
					"indices":39,
					"material":2
				}
			]
		}
	],
	"textures":[
		{
			"sampler":0,
			"source":0
		},
		{
			"sampler":0,
			"source":1
		},
		{
			"sampler":0,
			"source":2
		},
		{
			"sampler":0,
			"source":3
		}
	],
	"images":[
		{
			"mimeType":"image/jpeg",
			"name":"Ship_Oak_Aged_normal",
			"uri":"Ship_Oak_Aged_normal.jpg"
		},
		{
			"mimeType":"image/png",
			"name":"Ship_Oak_Aged_metallicRoughness",
			"uri":"Ship_Oak_Aged_metallicRoughness.png"
		},
		{
			"mimeType":"image/jpeg",
			"name":"Ship_Oak_Aged_baseColor",
			"uri":"Ship_Oak_Aged_baseColor.jpg"
		},
		{
			"mimeType":"image/jpeg",
			"name":"schiffsniet",
			"uri":"schiffsniet.jpg"
		}
	],
	"accessors":[
		{
			"bufferView":0,
			"componentType":5126,
			"count":675,
			"max":[
				55.102561950683594,
				110.63150024414062,
				-239.83645629882812
			],
			"min":[
				-55.102561950683594,
				17.178205490112305,
				-379.0042724609375
			],
			"type":"VEC3"
		},
		{
			"bufferView":1,
			"componentType":5126,
			"count":675,
			"type":"VEC3"
		},
		{
			"bufferView":2,
			"componentType":5126,
			"count":675,
			"type":"VEC2"
		},
		{
			"bufferView":3,
			"componentType":5123,
			"count":1968,
			"type":"SCALAR"
		},
		{
			"bufferView":4,
			"componentType":5126,
			"count":111,
			"max":[
				8.844578742980957,
				24.623607635498047,
				-158.96823120117188
			],
			"min":[
				-10.123309135437012,
				1.715761423110962,
				-306.3960876464844
			],
			"type":"VEC3"
		},
		{
			"bufferView":5,
			"componentType":5126,
			"count":111,
			"type":"VEC3"
		},
		{
			"bufferView":6,
			"componentType":5126,
			"count":111,
			"type":"VEC2"
		},
		{
			"bufferView":7,
			"componentType":5123,
			"count":384,
			"type":"SCALAR"
		},
		{
			"bufferView":8,
			"componentType":5126,
			"count":1402,
			"max":[
				75.9588851928711,
				111.2929916381836,
				-159.01905822753906
			],
			"min":[
				-75.9588851928711,
				11.337158203125,
				-388.9701232910156
			],
			"type":"VEC3"
		},
		{
			"bufferView":9,
			"componentType":5126,
			"count":1402,
			"type":"VEC3"
		},
		{
			"bufferView":10,
			"componentType":5126,
			"count":1402,
			"type":"VEC2"
		},
		{
			"bufferView":11,
			"componentType":5123,
			"count":4629,
			"type":"SCALAR"
		},
		{
			"bufferView":12,
			"componentType":5126,
			"count":705,
			"max":[
				45.76504135131836,
				46.5473747253418,
				14.081278800964355
			],
			"min":[
				-5.132757186889648,
				-76.88392639160156,
				-24.22405242919922
			],
			"type":"VEC3"
		},
		{
			"bufferView":13,
			"componentType":5126,
			"count":705,
			"type":"VEC3"
		},
		{
			"bufferView":14,
			"componentType":5126,
			"count":705,
			"type":"VEC2"
		},
		{
			"bufferView":15,
			"componentType":5123,
			"count":2958,
			"type":"SCALAR"
		},
		{
			"bufferView":16,
			"componentType":5126,
			"count":1208,
			"max":[
				33.52192306518555,
				93.74158477783203,
				-307.65435791015625
			],
			"min":[
				-38.942440032958984,
				52.09823989868164,
				-337.7705383300781
			],
			"type":"VEC3"
		},
		{
			"bufferView":17,
			"componentType":5126,
			"count":1208,
			"type":"VEC3"
		},
		{
			"bufferView":18,
			"componentType":5126,
			"count":1208,
			"type":"VEC2"
		},
		{
			"bufferView":19,
			"componentType":5123,
			"count":4509,
			"type":"SCALAR"
		},
		{
			"bufferView":20,
			"componentType":5126,
			"count":1313,
			"max":[
				10.373863220214844,
				155.7838134765625,
				-306.3960876464844
			],
			"min":[
				-10.373863220214844,
				11.577285766601562,
				-412.15728759765625
			],
			"type":"VEC3"
		},
		{
			"bufferView":21,
			"componentType":5126,
			"count":1313,
			"type":"VEC3"
		},
		{
			"bufferView":22,
			"componentType":5126,
			"count":1313,
			"type":"VEC2"
		},
		{
			"bufferView":23,
			"componentType":5123,
			"count":3924,
			"type":"SCALAR"
		},
		{
			"bufferView":24,
			"componentType":5126,
			"count":96,
			"max":[
				74.4749526977539,
				91.00373077392578,
				-159.09820556640625
			],
			"min":[
				-74.4749526977539,
				64.81892395019531,
				-311.17608642578125
			],
			"type":"VEC3"
		},
		{
			"bufferView":25,
			"componentType":5126,
			"count":96,
			"type":"VEC3"
		},
		{
			"bufferView":26,
			"componentType":5126,
			"count":96,
			"type":"VEC2"
		},
		{
			"bufferView":27,
			"componentType":5123,
			"count":366,
			"type":"SCALAR"
		},
		{
			"bufferView":28,
			"componentType":5126,
			"count":221,
			"max":[
				1.962928056716919,
				1.9483715295791626,
				137.4574432373047
			],
			"min":[
				-1.962928056716919,
				-9.302762031555176,
				-12.227084159851074
			],
			"type":"VEC3"
		},
		{
			"bufferView":29,
			"componentType":5126,
			"count":221,
			"type":"VEC3"
		},
		{
			"bufferView":30,
			"componentType":5126,
			"count":221,
			"type":"VEC2"
		},
		{
			"bufferView":31,
			"componentType":5123,
			"count":1068,
			"type":"SCALAR"
		},
		{
			"bufferView":32,
			"componentType":5126,
			"count":658440,
			"max":[
				13.761133193969727,
				23.491851806640625,
				19.916217803955078
			],
			"min":[
				-12.591684341430664,
				-20.034454345703125,
				-16.281864166259766
			],
			"type":"VEC3"
		},
		{
			"bufferView":33,
			"componentType":5126,
			"count":658440,
			"type":"VEC3"
		},
		{
			"bufferView":34,
			"componentType":5126,
			"count":658440,
			"type":"VEC2"
		},
		{
			"bufferView":35,
			"componentType":5125,
			"count":659166,
			"type":"SCALAR"
		},
		{
			"bufferView":36,
			"componentType":5126,
			"count":253045,
			"max":[
				6.593062877655029,
				9.7551908493042,
				12.173742294311523
			],
			"min":[
				-8.46908950805664,
				-12.084160804748535,
				-12.426474571228027
			],
			"type":"VEC3"
		},
		{
			"bufferView":37,
			"componentType":5126,
			"count":253045,
			"type":"VEC3"
		},
		{
			"bufferView":38,
			"componentType":5126,
			"count":253045,
			"type":"VEC2"
		},
		{
			"bufferView":39,
			"componentType":5125,
			"count":286164,
			"type":"SCALAR"
		}
	],
	"bufferViews":[
		{
			"buffer":0,
			"byteLength":8100,
			"byteOffset":0,
			"target":34962
		},
		{
			"buffer":0,
			"byteLength":8100,
			"byteOffset":8100,
			"target":34962
		},
		{
			"buffer":0,
			"byteLength":5400,
			"byteOffset":16200,
			"target":34962
		},
		{
			"buffer":0,
			"byteLength":3936,
			"byteOffset":21600,
			"target":34963
		},
		{
			"buffer":0,
			"byteLength":1332,
			"byteOffset":25536,
			"target":34962
		},
		{
			"buffer":0,
			"byteLength":1332,
			"byteOffset":26868,
			"target":34962
		},
		{
			"buffer":0,
			"byteLength":888,
			"byteOffset":28200,
			"target":34962
		},
		{
			"buffer":0,
			"byteLength":768,
			"byteOffset":29088,
			"target":34963
		},
		{
			"buffer":0,
			"byteLength":16824,
			"byteOffset":29856,
			"target":34962
		},
		{
			"buffer":0,
			"byteLength":16824,
			"byteOffset":46680,
			"target":34962
		},
		{
			"buffer":0,
			"byteLength":11216,
			"byteOffset":63504,
			"target":34962
		},
		{
			"buffer":0,
			"byteLength":9258,
			"byteOffset":74720,
			"target":34963
		},
		{
			"buffer":0,
			"byteLength":8460,
			"byteOffset":83980,
			"target":34962
		},
		{
			"buffer":0,
			"byteLength":8460,
			"byteOffset":92440,
			"target":34962
		},
		{
			"buffer":0,
			"byteLength":5640,
			"byteOffset":100900,
			"target":34962
		},
		{
			"buffer":0,
			"byteLength":5916,
			"byteOffset":106540,
			"target":34963
		},
		{
			"buffer":0,
			"byteLength":14496,
			"byteOffset":112456,
			"target":34962
		},
		{
			"buffer":0,
			"byteLength":14496,
			"byteOffset":126952,
			"target":34962
		},
		{
			"buffer":0,
			"byteLength":9664,
			"byteOffset":141448,
			"target":34962
		},
		{
			"buffer":0,
			"byteLength":9018,
			"byteOffset":151112,
			"target":34963
		},
		{
			"buffer":0,
			"byteLength":15756,
			"byteOffset":160132,
			"target":34962
		},
		{
			"buffer":0,
			"byteLength":15756,
			"byteOffset":175888,
			"target":34962
		},
		{
			"buffer":0,
			"byteLength":10504,
			"byteOffset":191644,
			"target":34962
		},
		{
			"buffer":0,
			"byteLength":7848,
			"byteOffset":202148,
			"target":34963
		},
		{
			"buffer":0,
			"byteLength":1152,
			"byteOffset":209996,
			"target":34962
		},
		{
			"buffer":0,
			"byteLength":1152,
			"byteOffset":211148,
			"target":34962
		},
		{
			"buffer":0,
			"byteLength":768,
			"byteOffset":212300,
			"target":34962
		},
		{
			"buffer":0,
			"byteLength":732,
			"byteOffset":213068,
			"target":34963
		},
		{
			"buffer":0,
			"byteLength":2652,
			"byteOffset":213800,
			"target":34962
		},
		{
			"buffer":0,
			"byteLength":2652,
			"byteOffset":216452,
			"target":34962
		},
		{
			"buffer":0,
			"byteLength":1768,
			"byteOffset":219104,
			"target":34962
		},
		{
			"buffer":0,
			"byteLength":2136,
			"byteOffset":220872,
			"target":34963
		},
		{
			"buffer":0,
			"byteLength":7901280,
			"byteOffset":223008,
			"target":34962
		},
		{
			"buffer":0,
			"byteLength":7901280,
			"byteOffset":8124288,
			"target":34962
		},
		{
			"buffer":0,
			"byteLength":5267520,
			"byteOffset":16025568,
			"target":34962
		},
		{
			"buffer":0,
			"byteLength":2636664,
			"byteOffset":21293088,
			"target":34963
		},
		{
			"buffer":0,
			"byteLength":3036540,
			"byteOffset":23929752,
			"target":34962
		},
		{
			"buffer":0,
			"byteLength":3036540,
			"byteOffset":26966292,
			"target":34962
		},
		{
			"buffer":0,
			"byteLength":2024360,
			"byteOffset":30002832,
			"target":34962
		},
		{
			"buffer":0,
			"byteLength":1144656,
			"byteOffset":32027192,
			"target":34963
		}
	],
	"samplers":[
		{
			"magFilter":9729,
			"minFilter":9987
		}
	],
	"buffers":[
		{
			"byteLength":33171848,
			"uri":"vikingboat_part_wRivets.bin"
		}
	]
}
